#!OML:ASF F:\VICON\USERDATA\INSTALL\rory3\rory3.ASF
:FULLY-SPECIFIED
:DEGREES
18
root 0.8532006480726696 17.721802772318505 -15.393889055456011 0.6113400075123421 -7.2197125706931775 -8.965480143491552
lfemur -25.773692614385503 -5.691878675694681 -7.084759777245965
ltibia 12.623811740526218
lfoot -6.506937233027283 13.109876544341361
ltoes -0.4674952235707588
rfemur 11.399385492099059 8.3701773118323 35.48568707243485
rtibia 23.550309313884604
rfoot -17.988289093344875 -5.057513452718621
rtoes -6.620400934783472
lowerback 8.691003097879472 2.9330239827422844 9.205019548295214
upperback -0.29611949339038834 4.959953467631981 2.346412540809688
thorax -4.627072198514201 2.252443017034388 -3.2853737551746467
lowerneck -16.812704234562716 -2.84261542950505 -1.2787724152361162
upperneck 21.771091795632984 -3.68213502240683 0.257254614567753
head 9.702821685617254 -1.7836844112388488 -0.1831653277226939
lclavicle -9.152775297015075e-16 -7.746724830317487e-16
lhumerus -38.73860028643885 6.9987591500883575 81.50190738654723
lradius 21.81500931713788
lwrist 2.1818802551305794
lhand -26.959003094961908 19.654494168484693
lfingers 7.125020000000057
lthumb -0.3804530950148345 49.63389414512109
rclavicle -9.152775297015075e-16 -7.746724830317487e-16
rhumerus -21.92351193137391 -8.06254913772279 -82.99510278366309
rradius 29.72510770871674
rwrist 1.1132254815458769
rhand -18.355897913608295 25.0619051912272
rfingers 7.125020000000057
rthumb 7.926842084964683 -4.7694547841854975
19
root 0.9375114036764771 17.81860051904406 -14.527989430608624 0.02202707703496129 -7.234752530395324 -7.496884375523031
lfemur -24.74609318396242 -3.7194537201925826 -10.409514791141746
ltibia 15.301310682825015
lfoot 0.23017192286695076 5.892655758461191
ltoes -1.708385911241849
rfemur 12.902184664137208 7.80105866012067 33.32959039683866
rtibia 26.202908322513522
rfoot -14.400791596341389 -2.7755378422787684
rtoes -10.656987245298607
lowerback 8.540243628135723 2.913824110923123 7.867062965041934
upperback -0.202097630357355 4.766204274112296 2.1079347075039707
thorax -4.547452587321441 2.1937235742275525 -2.767045833109522
lowerneck -16.949603588391113 -2.8543553264262433 -1.4385598455800408
upperneck 22.056091254863674 -3.615015412867148 0.0913978878270385
head 9.828910830641808 -1.7837444104066542 -0.21042587670977675
lclavicle -9.152775577828692e-16 -7.746725873017373e-16
lhumerus -39.1725999816643 8.868087048860259 80.74980841395457
lradius 20.294109676707173
lwrist 1.1092110083685593
lhand -27.20780231710831 18.485995244478083
lfingers 7.125020000000057
lthumb -0.6207743169423917 48.4647952215013
rclavicle -9.152775577828692e-16 -7.746725873017373e-16
rhumerus -22.88961119700857 -9.356948363879242 -82.56980317765117
rradius 29.25010782278816
rwrist 1.544165123292074
rhand -19.790689624013407 23.01650748900491
rfingers 7.125020000000057
rthumb 6.541900376097644 -6.862462432136888
20
root 0.9908776160105293 17.91849819360897 -13.649489811220299 -1.0373163218468302 -5.646656785514567 -4.494633027067871
lfemur -22.27719455242144 -3.7424836612932593 -14.944307990354503
ltibia 16.29021029217682
lfoot 3.03202590828225 0.12930111645146614
ltoes -3.0354245078054936
rfemur 11.890785221364096 6.226152391201651 29.764295894031218
rtibia 32.99190578522263
rfoot -7.955996092874308 -1.7821097532160808
rtoes -9.70340811688059
lowerback 8.386504168873298 2.6323159903078874 4.809440773307649
upperback -0.3102033230805412 4.050037255154948 1.3735413798466456
thorax -4.793901383835559 1.89811637926621 -1.7586798755673825
lowerneck -16.25200688108148 -3.0291037920973256 -1.4555195728385244
upperneck 22.235290914843116 -3.89499378412639 0.19302295275659498
head 9.76652125368819 -1.9058527167498487 -0.19979805254211236
lclavicle -9.152774954211318e-16 -7.746725172918664e-16
lhumerus -39.319899878223524 10.017585756760031 79.69280985787103
lradius 18.120410190610848
lwrist -0.6389357640669289
lhand -27.039502843285 18.007495685096714
lfingers 7.125020000000057
lthumb -0.45825784311144513 47.98679566159174
rclavicle -9.152774954211318e-16 -7.746725172918664e-16
rhumerus -24.533709947272445 -12.34229657911887 -81.76360392449622
rradius 27.669708202321566
rwrist 2.5871042562636957
rhand -20.067988021905332 22.674007873765294
rfingers 7.125020000000057
rthumb 6.274171978888376 -7.213112038089153
21
root 0.5424858097974221 17.7862133172113 13.190832415674713 -1.7630200307818846 -2.6804540169660815 -3.255714332284006
lfemur -19.021857497931414 -2.284508171019532 -18.226601360927646
ltibia 30.328395660124137
lfoot -4.880353126233807 -2.740903440336335
ltoes -4.808566026464842
rfemur -2.3237295236262767 3.348569506369238 27.790343091508962
rtibia 52.50371115595595
rfoot 4.459545741632445 -4.1288348385423514
rtoes 6.159360668121992
lowerback 10.691038314954756 1.6489330744626245 2.905654423651089
upperback -0.16448407335285037 2.6235516532280925 1.2676729551739971
thorax -6.001231909466796 1.214542991803563 -0.6921257575199081
lowerneck -16.757072836745337 -3.4442296357433637 -1.7700570824370332
upperneck 20.15527548657125 -4.497931748253628 1.0929348475276814
head 9.201973188149193 -2.1408012269288648 0.0822661557467016
lclavicle -9.536444402367502e-16 -8.039566931266255e-16
lhumerus -39.45408566056635 5.578778454573904 81.96580918874923
lradius 32.63153110163158
lwrist 5.6062677345986724
lhand -28.798756776363618 18.527068200715828
lfingers 7.125020000000057
lthumb -2.1568299446503794 48.50357483169789
rclavicle -9.536444402367508e-16 -8.039566931266254e-16
rhumerus -28.005174448515476 -12.26749983047062 -81.83589351848403
rradius 40.956323161916366
rwrist -0.6009947550831338
rhand -17.24722097895896 30.843005551032483
rfingers 7.125020000000057
rthumb 8.997691739221972 -6.17916128212097
